# xmcd
#
# Track frame offsets:
#	150
#	12998
#	25170
#	40727
#	60098
#	84538
#	100223
#	121039
#	136355
#	166348
#	182814
#	194550
#	211585
#	223402
#	244444
#	260565
#	282870
#
# Disc length: 3908 seconds
#
# Revision: 0
# Processed by: cddbd v1.5.2PL0 Copyright (c) Steve Scherf et al.
# Submitted via: audiograbber 1.83.01
#
DISCID=f00f4211
DTITLE=Albert C. Humphrey - Suitcase Full Of Blues
DYEAR=2014
DGENRE=Blues
TTITLE0=Walk With Me (Traditional)
TTITLE1=Hand Me Down My Walking Shoes
TTITLE2=Paying My Dues To The Blues
TTITLE3=Turn The Lights Down Baby
TTITLE4=The Blues Moved In
TTITLE5=I'm Leaving You Baby
TTITLE6=It's All Your Fault
TTITLE7=Good Loving Is Hard To Find
TTITLE8=I Ain't Gonna Be Your Fool
TTITLE9=Suitcase Full Of Blues
TTITLE10=These Blues's Gonna Kill Me
TTITLE11=Mr. Bill Collector
TTITLE12=Down And Blue
TTITLE13=Dark Clouds
TTITLE14=Blues Is Here To Stay
TTITLE15=Worried About You
TTITLE16=This Train (traditional)
EXTD=
EXTT0=
EXTT1=
EXTT2=
EXTT3=
EXTT4=
EXTT5=
EXTT6=
EXTT7=
EXTT8=
EXTT9=
EXTT10=
EXTT11=
EXTT12=
EXTT13=
EXTT14=
EXTT15=
EXTT16=
PLAYORDER=
